<mxfile host="app.diagrams.net" agent="Mozilla/5.0 (Windows NT 10.0; Win64; x64) AppleWebKit/537.36 (KHTML, like Gecko) Chrome/133.0.0.0 Safari/537.36" version="26.0.16" pages="7">
  <diagram id="65vfC-7LeFZRpfFSywaT" name="01 - uses">
    <mxGraphModel dx="394" dy="243" grid="1" gridSize="10" guides="1" tooltips="1" connect="1" arrows="1" fold="1" page="1" pageScale="1" pageWidth="1920" pageHeight="1200" math="0" shadow="0">
      <root>
        <mxCell id="0" />
        <mxCell id="1" parent="0" />
        <mxCell id="Y8jP0EyAplemmG68bICI-1" value="Enforcing uniqueness of any value" style="rounded=0;whiteSpace=wrap;html=1;fillColor=#dae8fc;strokeColor=#6c8ebf;" vertex="1" parent="1">
          <mxGeometry x="700" y="410" width="330" height="30" as="geometry" />
        </mxCell>
        <mxCell id="Y8jP0EyAplemmG68bICI-2" value="Set Use Cases" style="text;html=1;strokeColor=none;fillColor=none;align=center;verticalAlign=middle;whiteSpace=wrap;rounded=0;fontSize=20;fontStyle=1" vertex="1" parent="1">
          <mxGeometry x="763.75" y="385" width="202.5" height="20" as="geometry" />
        </mxCell>
        <mxCell id="Y8jP0EyAplemmG68bICI-4" value="Finding common attributes between different things" style="rounded=0;whiteSpace=wrap;html=1;fillColor=#dae8fc;strokeColor=#6c8ebf;" vertex="1" parent="1">
          <mxGeometry x="700" y="490" width="330" height="30" as="geometry" />
        </mxCell>
        <mxCell id="Y8jP0EyAplemmG68bICI-5" value="Creating a relationship between different records" style="rounded=0;whiteSpace=wrap;html=1;fillColor=#dae8fc;strokeColor=#6c8ebf;" vertex="1" parent="1">
          <mxGeometry x="700" y="450" width="330" height="30" as="geometry" />
        </mxCell>
        <mxCell id="Y8jP0EyAplemmG68bICI-6" value="General list of elements where order doesn&#39;t matter" style="rounded=0;whiteSpace=wrap;html=1;fillColor=#dae8fc;strokeColor=#6c8ebf;" vertex="1" parent="1">
          <mxGeometry x="700" y="530" width="330" height="30" as="geometry" />
        </mxCell>
      </root>
    </mxGraphModel>
  </diagram>
  <diagram id="PM_84VMtJE19uxWeuPDo" name="02 - unique">
    <mxGraphModel dx="471" dy="290" grid="1" gridSize="10" guides="1" tooltips="1" connect="1" arrows="1" fold="1" page="1" pageScale="1" pageWidth="1920" pageHeight="1200" math="0" shadow="0">
      <root>
        <mxCell id="uspkfItibW6oa9765OMP-0" />
        <mxCell id="uspkfItibW6oa9765OMP-1" parent="uspkfItibW6oa9765OMP-0" />
        <mxCell id="gSGej4dtUN3YKoE-uAbL-1" value="Redis" style="rounded=0;whiteSpace=wrap;html=1;shadow=1;fontSize=14;align=center;fillColor=#dae8fc;strokeColor=#6c8ebf;" vertex="1" parent="uspkfItibW6oa9765OMP-1">
          <mxGeometry x="830" y="380" width="230" height="30" as="geometry" />
        </mxCell>
        <mxCell id="gSGej4dtUN3YKoE-uAbL-2" value="" style="rounded=0;whiteSpace=wrap;html=1;shadow=1;fontSize=14;align=center;fillColor=#dae8fc;strokeColor=#6c8ebf;" vertex="1" parent="uspkfItibW6oa9765OMP-1">
          <mxGeometry x="830" y="410" width="230" height="180" as="geometry" />
        </mxCell>
        <mxCell id="gSGej4dtUN3YKoE-uAbL-6" value="Set of Usernames" style="rounded=0;whiteSpace=wrap;html=1;fontSize=11;align=center;fontStyle=2;fillColor=#f5f5f5;strokeColor=#666666;fontColor=#333333;" vertex="1" parent="uspkfItibW6oa9765OMP-1">
          <mxGeometry x="950" y="420" width="100" height="20" as="geometry" />
        </mxCell>
        <mxCell id="gSGej4dtUN3YKoE-uAbL-15" style="edgeStyle=orthogonalEdgeStyle;rounded=0;orthogonalLoop=1;jettySize=auto;html=1;exitX=1;exitY=0.5;exitDx=0;exitDy=0;fontSize=11;" edge="1" parent="uspkfItibW6oa9765OMP-1" source="gSGej4dtUN3YKoE-uAbL-14" target="gSGej4dtUN3YKoE-uAbL-6">
          <mxGeometry relative="1" as="geometry" />
        </mxCell>
        <mxCell id="gSGej4dtUN3YKoE-uAbL-14" value="usernames:unique" style="rounded=0;whiteSpace=wrap;html=1;fontSize=9;" vertex="1" parent="uspkfItibW6oa9765OMP-1">
          <mxGeometry x="840" y="420" width="90" height="20" as="geometry" />
        </mxCell>
        <mxCell id="gSGej4dtUN3YKoE-uAbL-16" value="" style="rounded=0;whiteSpace=wrap;html=1;fontSize=11;align=center;fontStyle=2;fillColor=#f5f5f5;strokeColor=#666666;fontColor=#333333;" vertex="1" parent="uspkfItibW6oa9765OMP-1">
          <mxGeometry x="950" y="440" width="100" height="140" as="geometry" />
        </mxCell>
        <mxCell id="gSGej4dtUN3YKoE-uAbL-17" value="API" style="rounded=0;whiteSpace=wrap;html=1;shadow=1;fontSize=14;align=center;fillColor=#dae8fc;strokeColor=#6c8ebf;" vertex="1" parent="uspkfItibW6oa9765OMP-1">
          <mxGeometry x="710" y="380" width="110" height="30" as="geometry" />
        </mxCell>
        <mxCell id="gSGej4dtUN3YKoE-uAbL-18" value="" style="rounded=0;whiteSpace=wrap;html=1;shadow=1;fontSize=14;align=center;fillColor=#dae8fc;strokeColor=#6c8ebf;" vertex="1" parent="uspkfItibW6oa9765OMP-1">
          <mxGeometry x="710" y="410" width="110" height="180" as="geometry" />
        </mxCell>
        <mxCell id="gSGej4dtUN3YKoE-uAbL-19" value="Request" style="rounded=0;whiteSpace=wrap;html=1;fontSize=11;fillColor=#f5f5f5;strokeColor=#666666;fontColor=#333333;fontStyle=1" vertex="1" parent="uspkfItibW6oa9765OMP-1">
          <mxGeometry x="600" y="400" width="90" height="20" as="geometry" />
        </mxCell>
        <mxCell id="gSGej4dtUN3YKoE-uAbL-21" style="edgeStyle=orthogonalEdgeStyle;rounded=0;orthogonalLoop=1;jettySize=auto;html=1;exitX=1;exitY=0.5;exitDx=0;exitDy=0;entryX=0;entryY=0.25;entryDx=0;entryDy=0;fontSize=11;" edge="1" parent="uspkfItibW6oa9765OMP-1" source="gSGej4dtUN3YKoE-uAbL-20" target="gSGej4dtUN3YKoE-uAbL-18">
          <mxGeometry relative="1" as="geometry" />
        </mxCell>
        <mxCell id="gSGej4dtUN3YKoE-uAbL-20" value="Sign up with username &#39;powerseller1&#39;" style="rounded=0;whiteSpace=wrap;html=1;fontSize=11;fillColor=#f5f5f5;strokeColor=#666666;fontColor=#333333;fontStyle=2" vertex="1" parent="uspkfItibW6oa9765OMP-1">
          <mxGeometry x="600" y="420" width="90" height="70" as="geometry" />
        </mxCell>
        <mxCell id="gSGej4dtUN3YKoE-uAbL-23" style="edgeStyle=orthogonalEdgeStyle;rounded=0;orthogonalLoop=1;jettySize=auto;html=1;exitX=1;exitY=0.5;exitDx=0;exitDy=0;entryX=0;entryY=0.5;entryDx=0;entryDy=0;fontSize=11;" edge="1" parent="uspkfItibW6oa9765OMP-1" source="gSGej4dtUN3YKoE-uAbL-22" target="gSGej4dtUN3YKoE-uAbL-14">
          <mxGeometry relative="1" as="geometry">
            <Array as="points">
              <mxPoint x="815" y="430" />
            </Array>
          </mxGeometry>
        </mxCell>
        <mxCell id="gSGej4dtUN3YKoE-uAbL-29" style="edgeStyle=orthogonalEdgeStyle;rounded=0;orthogonalLoop=1;jettySize=auto;html=1;exitX=0.5;exitY=1;exitDx=0;exitDy=0;entryX=0.5;entryY=0;entryDx=0;entryDy=0;fontSize=11;" edge="1" parent="uspkfItibW6oa9765OMP-1" source="gSGej4dtUN3YKoE-uAbL-22" target="gSGej4dtUN3YKoE-uAbL-28">
          <mxGeometry relative="1" as="geometry" />
        </mxCell>
        <mxCell id="gSGej4dtUN3YKoE-uAbL-22" value="Check to see if this username is already in use" style="rounded=0;whiteSpace=wrap;html=1;fontSize=11;" vertex="1" parent="uspkfItibW6oa9765OMP-1">
          <mxGeometry x="715" y="430" width="100" height="50" as="geometry" />
        </mxCell>
        <mxCell id="gSGej4dtUN3YKoE-uAbL-24" value="seller4" style="rounded=0;whiteSpace=wrap;html=1;fontSize=11;" vertex="1" parent="uspkfItibW6oa9765OMP-1">
          <mxGeometry x="960" y="445" width="80" height="20" as="geometry" />
        </mxCell>
        <mxCell id="gSGej4dtUN3YKoE-uAbL-25" value="chairvendor" style="rounded=0;whiteSpace=wrap;html=1;fontSize=11;" vertex="1" parent="uspkfItibW6oa9765OMP-1">
          <mxGeometry x="960" y="473" width="80" height="20" as="geometry" />
        </mxCell>
        <mxCell id="gSGej4dtUN3YKoE-uAbL-26" value="tablemerchant" style="rounded=0;whiteSpace=wrap;html=1;fontSize=11;" vertex="1" parent="uspkfItibW6oa9765OMP-1">
          <mxGeometry x="960" y="502" width="80" height="20" as="geometry" />
        </mxCell>
        <mxCell id="gSGej4dtUN3YKoE-uAbL-27" value="gooditems" style="rounded=0;whiteSpace=wrap;html=1;fontSize=11;" vertex="1" parent="uspkfItibW6oa9765OMP-1">
          <mxGeometry x="960" y="530" width="80" height="20" as="geometry" />
        </mxCell>
        <mxCell id="gSGej4dtUN3YKoE-uAbL-28" value="Nope! Create new user + add username to set" style="rounded=0;whiteSpace=wrap;html=1;fontSize=11;" vertex="1" parent="uspkfItibW6oa9765OMP-1">
          <mxGeometry x="715" y="493" width="100" height="57" as="geometry" />
        </mxCell>
        <mxCell id="KByKT-0Sir-wnAgBDlZ6-0" value="Is the username &#39;powerseller1&#39; in use?" style="rounded=0;whiteSpace=wrap;html=1;fontSize=14;fontStyle=1;fillColor=#f8cecc;strokeColor=#b85450;" vertex="1" parent="uspkfItibW6oa9765OMP-1">
          <mxGeometry x="700" y="610" width="320" height="40" as="geometry" />
        </mxCell>
        <mxCell id="KByKT-0Sir-wnAgBDlZ6-1" value="SISMEMBER usernames powerseller1" style="rounded=0;whiteSpace=wrap;html=1;fontSize=12;align=center;fontStyle=2;fillColor=#f5f5f5;strokeColor=#666666;fontColor=#333333;" vertex="1" parent="uspkfItibW6oa9765OMP-1">
          <mxGeometry x="700" y="650" width="320" height="30" as="geometry" />
        </mxCell>
        <mxCell id="K8rMCQtOQAX7UBQQrtDy-0" value="powerseller1" style="rounded=0;whiteSpace=wrap;html=1;fontSize=11;" vertex="1" parent="uspkfItibW6oa9765OMP-1">
          <mxGeometry x="960" y="550" width="80" height="20" as="geometry" />
        </mxCell>
      </root>
    </mxGraphModel>
  </diagram>
  <diagram name="04 - likes" id="EOR6ztOeFSySmGALgoNd">
    <mxGraphModel dx="538" dy="332" grid="1" gridSize="10" guides="1" tooltips="1" connect="1" arrows="1" fold="1" page="1" pageScale="1" pageWidth="1920" pageHeight="1200" math="0" shadow="0">
      <root>
        <mxCell id="uQO97clvonAkQRXxeujS-0" />
        <mxCell id="uQO97clvonAkQRXxeujS-1" parent="uQO97clvonAkQRXxeujS-0" />
        <mxCell id="uQO97clvonAkQRXxeujS-2" value="Redis" style="rounded=0;whiteSpace=wrap;html=1;shadow=1;fontSize=14;align=center;fillColor=#dae8fc;strokeColor=#6c8ebf;" vertex="1" parent="uQO97clvonAkQRXxeujS-1">
          <mxGeometry x="850" y="380" width="210" height="30" as="geometry" />
        </mxCell>
        <mxCell id="uQO97clvonAkQRXxeujS-3" value="" style="rounded=0;whiteSpace=wrap;html=1;shadow=1;fontSize=14;align=center;fillColor=#dae8fc;strokeColor=#6c8ebf;" vertex="1" parent="uQO97clvonAkQRXxeujS-1">
          <mxGeometry x="850" y="410" width="210" height="180" as="geometry" />
        </mxCell>
        <mxCell id="uQO97clvonAkQRXxeujS-4" value="Item ID&#39;s that user ID 45 likes" style="rounded=0;whiteSpace=wrap;html=1;fontSize=11;align=center;fontStyle=2;fillColor=#f5f5f5;strokeColor=#666666;fontColor=#333333;" vertex="1" parent="uQO97clvonAkQRXxeujS-1">
          <mxGeometry x="950" y="420" width="100" height="30" as="geometry" />
        </mxCell>
        <mxCell id="uQO97clvonAkQRXxeujS-5" style="edgeStyle=orthogonalEdgeStyle;rounded=0;orthogonalLoop=1;jettySize=auto;html=1;exitX=1;exitY=0.5;exitDx=0;exitDy=0;fontSize=11;" edge="1" parent="uQO97clvonAkQRXxeujS-1" source="uQO97clvonAkQRXxeujS-6" target="uQO97clvonAkQRXxeujS-4">
          <mxGeometry relative="1" as="geometry" />
        </mxCell>
        <mxCell id="uQO97clvonAkQRXxeujS-6" value="users:likes#45" style="rounded=0;whiteSpace=wrap;html=1;fontSize=11;" vertex="1" parent="uQO97clvonAkQRXxeujS-1">
          <mxGeometry x="852" y="425" width="80" height="20" as="geometry" />
        </mxCell>
        <mxCell id="uQO97clvonAkQRXxeujS-7" value="" style="rounded=0;whiteSpace=wrap;html=1;fontSize=11;align=center;fontStyle=2;fillColor=#f5f5f5;strokeColor=#666666;fontColor=#333333;" vertex="1" parent="uQO97clvonAkQRXxeujS-1">
          <mxGeometry x="950" y="450" width="100" height="130" as="geometry" />
        </mxCell>
        <mxCell id="uQO97clvonAkQRXxeujS-8" value="123" style="rounded=0;whiteSpace=wrap;html=1;fontSize=11;" vertex="1" parent="uQO97clvonAkQRXxeujS-1">
          <mxGeometry x="960" y="455" width="80" height="20" as="geometry" />
        </mxCell>
        <mxCell id="uQO97clvonAkQRXxeujS-9" value="555" style="rounded=0;whiteSpace=wrap;html=1;fontSize=11;" vertex="1" parent="uQO97clvonAkQRXxeujS-1">
          <mxGeometry x="960" y="483" width="80" height="20" as="geometry" />
        </mxCell>
        <mxCell id="uQO97clvonAkQRXxeujS-10" value="222" style="rounded=0;whiteSpace=wrap;html=1;fontSize=11;" vertex="1" parent="uQO97clvonAkQRXxeujS-1">
          <mxGeometry x="960" y="512" width="80" height="20" as="geometry" />
        </mxCell>
        <mxCell id="uQO97clvonAkQRXxeujS-11" value="909" style="rounded=0;whiteSpace=wrap;html=1;fontSize=11;" vertex="1" parent="uQO97clvonAkQRXxeujS-1">
          <mxGeometry x="960" y="540" width="80" height="20" as="geometry" />
        </mxCell>
        <mxCell id="uQO97clvonAkQRXxeujS-20" value="Which items do user with ID 45 like?" style="rounded=0;whiteSpace=wrap;html=1;fontSize=14;fontStyle=1;fillColor=#f8cecc;strokeColor=#b85450;" vertex="1" parent="uQO97clvonAkQRXxeujS-1">
          <mxGeometry x="1080" y="382" width="260" height="40" as="geometry" />
        </mxCell>
        <mxCell id="5Gb4C19hUrc3802h6q6f-2" value="SMEMBERS&amp;nbsp;&lt;span style=&quot;color: rgb(0 , 0 , 0) ; font-size: 11px ; font-style: normal&quot;&gt;users:likes#45&lt;/span&gt;" style="rounded=0;whiteSpace=wrap;html=1;fontSize=12;align=center;fontStyle=2;fillColor=#f5f5f5;strokeColor=#666666;fontColor=#333333;" vertex="1" parent="uQO97clvonAkQRXxeujS-1">
          <mxGeometry x="1080" y="422" width="260" height="30" as="geometry" />
        </mxCell>
        <mxCell id="5Gb4C19hUrc3802h6q6f-3" value="How &lt;i&gt;many&lt;/i&gt; items does user with ID 45 like?" style="rounded=0;whiteSpace=wrap;html=1;fontSize=14;fontStyle=1;fillColor=#f8cecc;strokeColor=#b85450;" vertex="1" parent="uQO97clvonAkQRXxeujS-1">
          <mxGeometry x="1080" y="462" width="260" height="40" as="geometry" />
        </mxCell>
        <mxCell id="5Gb4C19hUrc3802h6q6f-4" value="SCARD&amp;nbsp;&lt;span style=&quot;color: rgb(0 , 0 , 0) ; font-size: 11px ; font-style: normal&quot;&gt;users:likes#45&lt;/span&gt;" style="rounded=0;whiteSpace=wrap;html=1;fontSize=12;align=center;fontStyle=2;fillColor=#f5f5f5;strokeColor=#666666;fontColor=#333333;" vertex="1" parent="uQO97clvonAkQRXxeujS-1">
          <mxGeometry x="1080" y="502" width="260" height="30" as="geometry" />
        </mxCell>
        <mxCell id="5Gb4C19hUrc3802h6q6f-5" value="Does user with ID 45 like the item with ID 123?" style="rounded=0;whiteSpace=wrap;html=1;fontSize=14;fontStyle=1;fillColor=#f8cecc;strokeColor=#b85450;" vertex="1" parent="uQO97clvonAkQRXxeujS-1">
          <mxGeometry x="1080" y="540" width="260" height="40" as="geometry" />
        </mxCell>
        <mxCell id="5Gb4C19hUrc3802h6q6f-6" value="SISMEMBER&amp;nbsp;&lt;span style=&quot;color: rgb(0 , 0 , 0) ; font-size: 11px ; font-style: normal&quot;&gt;users:likes#45&lt;/span&gt;&amp;nbsp;123" style="rounded=0;whiteSpace=wrap;html=1;fontSize=12;align=center;fontStyle=2;fillColor=#f5f5f5;strokeColor=#666666;fontColor=#333333;" vertex="1" parent="uQO97clvonAkQRXxeujS-1">
          <mxGeometry x="1080" y="580" width="260" height="30" as="geometry" />
        </mxCell>
      </root>
    </mxGraphModel>
  </diagram>
  <diagram id="Mh0uvSvNiHFg_AnbaUa-" name="06 - dup">
    <mxGraphModel dx="565" dy="348" grid="1" gridSize="10" guides="1" tooltips="1" connect="1" arrows="1" fold="1" page="1" pageScale="1" pageWidth="1920" pageHeight="1200" math="0" shadow="0">
      <root>
        <mxCell id="TpucwG2LI65JiCxC-MDD-0" />
        <mxCell id="TpucwG2LI65JiCxC-MDD-1" parent="TpucwG2LI65JiCxC-MDD-0" />
        <mxCell id="Nla-4TpSgEvF4evDeSvK-0" value="Redis" style="rounded=0;whiteSpace=wrap;html=1;shadow=1;fontSize=14;align=center;fillColor=#dae8fc;strokeColor=#6c8ebf;" vertex="1" parent="TpucwG2LI65JiCxC-MDD-1">
          <mxGeometry x="866" y="380" width="374" height="30" as="geometry" />
        </mxCell>
        <mxCell id="Nla-4TpSgEvF4evDeSvK-1" value="" style="rounded=0;whiteSpace=wrap;html=1;shadow=1;fontSize=14;align=center;fillColor=#dae8fc;strokeColor=#6c8ebf;" vertex="1" parent="TpucwG2LI65JiCxC-MDD-1">
          <mxGeometry x="866" y="410" width="374" height="270" as="geometry" />
        </mxCell>
        <mxCell id="Nla-4TpSgEvF4evDeSvK-2" value="Item ID&#39;s that user ID 45 likes" style="rounded=0;whiteSpace=wrap;html=1;fontSize=11;align=center;fontStyle=2;fillColor=#f5f5f5;strokeColor=#666666;fontColor=#333333;" vertex="1" parent="TpucwG2LI65JiCxC-MDD-1">
          <mxGeometry x="950" y="420" width="100" height="30" as="geometry" />
        </mxCell>
        <mxCell id="Nla-4TpSgEvF4evDeSvK-3" style="edgeStyle=orthogonalEdgeStyle;rounded=0;orthogonalLoop=1;jettySize=auto;html=1;exitX=1;exitY=0.5;exitDx=0;exitDy=0;fontSize=11;" edge="1" parent="TpucwG2LI65JiCxC-MDD-1" source="Nla-4TpSgEvF4evDeSvK-4" target="Nla-4TpSgEvF4evDeSvK-2">
          <mxGeometry relative="1" as="geometry" />
        </mxCell>
        <mxCell id="Nla-4TpSgEvF4evDeSvK-4" value="users:likes#45" style="rounded=0;whiteSpace=wrap;html=1;fontSize=8;" vertex="1" parent="TpucwG2LI65JiCxC-MDD-1">
          <mxGeometry x="870" y="425" width="62" height="20" as="geometry" />
        </mxCell>
        <mxCell id="Nla-4TpSgEvF4evDeSvK-5" value="" style="rounded=0;whiteSpace=wrap;html=1;fontSize=11;align=center;fontStyle=2;fillColor=#f5f5f5;strokeColor=#666666;fontColor=#333333;" vertex="1" parent="TpucwG2LI65JiCxC-MDD-1">
          <mxGeometry x="950" y="450" width="100" height="80" as="geometry" />
        </mxCell>
        <mxCell id="Nla-4TpSgEvF4evDeSvK-6" value="123" style="rounded=0;whiteSpace=wrap;html=1;fontSize=11;" vertex="1" parent="TpucwG2LI65JiCxC-MDD-1">
          <mxGeometry x="960" y="452" width="80" height="13" as="geometry" />
        </mxCell>
        <mxCell id="Nla-4TpSgEvF4evDeSvK-7" value="555" style="rounded=0;whiteSpace=wrap;html=1;fontSize=11;" vertex="1" parent="TpucwG2LI65JiCxC-MDD-1">
          <mxGeometry x="960" y="472" width="80" height="13" as="geometry" />
        </mxCell>
        <mxCell id="Nla-4TpSgEvF4evDeSvK-8" value="222" style="rounded=0;whiteSpace=wrap;html=1;fontSize=11;" vertex="1" parent="TpucwG2LI65JiCxC-MDD-1">
          <mxGeometry x="960" y="492" width="80" height="13" as="geometry" />
        </mxCell>
        <mxCell id="Nla-4TpSgEvF4evDeSvK-9" value="909" style="rounded=0;whiteSpace=wrap;html=1;fontSize=11;" vertex="1" parent="TpucwG2LI65JiCxC-MDD-1">
          <mxGeometry x="960" y="512.5" width="80" height="13" as="geometry" />
        </mxCell>
        <mxCell id="Nla-4TpSgEvF4evDeSvK-16" value="Item ID&#39;s that user ID 32 likes" style="rounded=0;whiteSpace=wrap;html=1;fontSize=11;align=center;fontStyle=2;fillColor=#f5f5f5;strokeColor=#666666;fontColor=#333333;" vertex="1" parent="TpucwG2LI65JiCxC-MDD-1">
          <mxGeometry x="1138" y="420" width="100" height="30" as="geometry" />
        </mxCell>
        <mxCell id="Nla-4TpSgEvF4evDeSvK-17" style="edgeStyle=orthogonalEdgeStyle;rounded=0;orthogonalLoop=1;jettySize=auto;html=1;exitX=1;exitY=0.5;exitDx=0;exitDy=0;fontSize=11;" edge="1" parent="TpucwG2LI65JiCxC-MDD-1" source="Nla-4TpSgEvF4evDeSvK-18" target="Nla-4TpSgEvF4evDeSvK-16">
          <mxGeometry relative="1" as="geometry" />
        </mxCell>
        <mxCell id="Nla-4TpSgEvF4evDeSvK-18" value="users:likes#32" style="rounded=0;whiteSpace=wrap;html=1;fontSize=8;" vertex="1" parent="TpucwG2LI65JiCxC-MDD-1">
          <mxGeometry x="1060" y="425" width="60" height="20" as="geometry" />
        </mxCell>
        <mxCell id="Nla-4TpSgEvF4evDeSvK-24" value="" style="rounded=0;whiteSpace=wrap;html=1;fontSize=11;align=center;fontStyle=2;fillColor=#f5f5f5;strokeColor=#666666;fontColor=#333333;" vertex="1" parent="TpucwG2LI65JiCxC-MDD-1">
          <mxGeometry x="1138" y="450" width="100" height="80" as="geometry" />
        </mxCell>
        <mxCell id="Nla-4TpSgEvF4evDeSvK-25" value="123" style="rounded=0;whiteSpace=wrap;html=1;fontSize=11;" vertex="1" parent="TpucwG2LI65JiCxC-MDD-1">
          <mxGeometry x="1148" y="452" width="80" height="13" as="geometry" />
        </mxCell>
        <mxCell id="Nla-4TpSgEvF4evDeSvK-26" value="555" style="rounded=0;whiteSpace=wrap;html=1;fontSize=11;" vertex="1" parent="TpucwG2LI65JiCxC-MDD-1">
          <mxGeometry x="1148" y="472" width="80" height="13" as="geometry" />
        </mxCell>
        <mxCell id="Nla-4TpSgEvF4evDeSvK-27" value="222" style="rounded=0;whiteSpace=wrap;html=1;fontSize=11;" vertex="1" parent="TpucwG2LI65JiCxC-MDD-1">
          <mxGeometry x="1148" y="492" width="80" height="13" as="geometry" />
        </mxCell>
        <mxCell id="Nla-4TpSgEvF4evDeSvK-28" value="909" style="rounded=0;whiteSpace=wrap;html=1;fontSize=11;" vertex="1" parent="TpucwG2LI65JiCxC-MDD-1">
          <mxGeometry x="1148" y="512.5" width="80" height="13" as="geometry" />
        </mxCell>
        <mxCell id="Nla-4TpSgEvF4evDeSvK-29" value="Item ID&#39;s that user ID 17 likes" style="rounded=0;whiteSpace=wrap;html=1;fontSize=11;align=center;fontStyle=2;fillColor=#f5f5f5;strokeColor=#666666;fontColor=#333333;" vertex="1" parent="TpucwG2LI65JiCxC-MDD-1">
          <mxGeometry x="950" y="560" width="100" height="30" as="geometry" />
        </mxCell>
        <mxCell id="Nla-4TpSgEvF4evDeSvK-30" style="edgeStyle=orthogonalEdgeStyle;rounded=0;orthogonalLoop=1;jettySize=auto;html=1;exitX=1;exitY=0.5;exitDx=0;exitDy=0;fontSize=11;" edge="1" parent="TpucwG2LI65JiCxC-MDD-1" source="Nla-4TpSgEvF4evDeSvK-31" target="Nla-4TpSgEvF4evDeSvK-29">
          <mxGeometry relative="1" as="geometry" />
        </mxCell>
        <mxCell id="Nla-4TpSgEvF4evDeSvK-31" value="users:likes#17" style="rounded=0;whiteSpace=wrap;html=1;fontSize=8;" vertex="1" parent="TpucwG2LI65JiCxC-MDD-1">
          <mxGeometry x="870" y="565" width="62" height="20" as="geometry" />
        </mxCell>
        <mxCell id="Nla-4TpSgEvF4evDeSvK-32" value="" style="rounded=0;whiteSpace=wrap;html=1;fontSize=11;align=center;fontStyle=2;fillColor=#f5f5f5;strokeColor=#666666;fontColor=#333333;" vertex="1" parent="TpucwG2LI65JiCxC-MDD-1">
          <mxGeometry x="950" y="590" width="100" height="80" as="geometry" />
        </mxCell>
        <mxCell id="Nla-4TpSgEvF4evDeSvK-33" value="123" style="rounded=0;whiteSpace=wrap;html=1;fontSize=11;" vertex="1" parent="TpucwG2LI65JiCxC-MDD-1">
          <mxGeometry x="960" y="592" width="80" height="13" as="geometry" />
        </mxCell>
        <mxCell id="Nla-4TpSgEvF4evDeSvK-34" value="555" style="rounded=0;whiteSpace=wrap;html=1;fontSize=11;" vertex="1" parent="TpucwG2LI65JiCxC-MDD-1">
          <mxGeometry x="960" y="612" width="80" height="13" as="geometry" />
        </mxCell>
        <mxCell id="Nla-4TpSgEvF4evDeSvK-35" value="222" style="rounded=0;whiteSpace=wrap;html=1;fontSize=11;" vertex="1" parent="TpucwG2LI65JiCxC-MDD-1">
          <mxGeometry x="960" y="632" width="80" height="13" as="geometry" />
        </mxCell>
        <mxCell id="Nla-4TpSgEvF4evDeSvK-36" value="909" style="rounded=0;whiteSpace=wrap;html=1;fontSize=11;" vertex="1" parent="TpucwG2LI65JiCxC-MDD-1">
          <mxGeometry x="960" y="652.5" width="80" height="13" as="geometry" />
        </mxCell>
        <mxCell id="Nla-4TpSgEvF4evDeSvK-37" value="Item ID&#39;s that user ID 82 likes" style="rounded=0;whiteSpace=wrap;html=1;fontSize=11;align=center;fontStyle=2;fillColor=#f5f5f5;strokeColor=#666666;fontColor=#333333;" vertex="1" parent="TpucwG2LI65JiCxC-MDD-1">
          <mxGeometry x="1138" y="560" width="100" height="30" as="geometry" />
        </mxCell>
        <mxCell id="Nla-4TpSgEvF4evDeSvK-38" style="edgeStyle=orthogonalEdgeStyle;rounded=0;orthogonalLoop=1;jettySize=auto;html=1;exitX=1;exitY=0.5;exitDx=0;exitDy=0;fontSize=11;" edge="1" parent="TpucwG2LI65JiCxC-MDD-1" source="Nla-4TpSgEvF4evDeSvK-39" target="Nla-4TpSgEvF4evDeSvK-37">
          <mxGeometry relative="1" as="geometry" />
        </mxCell>
        <mxCell id="Nla-4TpSgEvF4evDeSvK-39" value="users:likes#82" style="rounded=0;whiteSpace=wrap;html=1;fontSize=8;" vertex="1" parent="TpucwG2LI65JiCxC-MDD-1">
          <mxGeometry x="1060" y="565" width="60" height="20" as="geometry" />
        </mxCell>
        <mxCell id="Nla-4TpSgEvF4evDeSvK-40" value="" style="rounded=0;whiteSpace=wrap;html=1;fontSize=11;align=center;fontStyle=2;fillColor=#f5f5f5;strokeColor=#666666;fontColor=#333333;" vertex="1" parent="TpucwG2LI65JiCxC-MDD-1">
          <mxGeometry x="1138" y="590" width="100" height="80" as="geometry" />
        </mxCell>
        <mxCell id="Nla-4TpSgEvF4evDeSvK-41" value="123" style="rounded=0;whiteSpace=wrap;html=1;fontSize=11;" vertex="1" parent="TpucwG2LI65JiCxC-MDD-1">
          <mxGeometry x="1148" y="592" width="80" height="13" as="geometry" />
        </mxCell>
        <mxCell id="Nla-4TpSgEvF4evDeSvK-42" value="19915b" style="rounded=0;whiteSpace=wrap;html=1;fontSize=11;fillColor=#ffe6cc;strokeColor=#d79b00;" vertex="1" parent="TpucwG2LI65JiCxC-MDD-1">
          <mxGeometry x="1148" y="612" width="80" height="13" as="geometry" />
        </mxCell>
        <mxCell id="Nla-4TpSgEvF4evDeSvK-43" value="222" style="rounded=0;whiteSpace=wrap;html=1;fontSize=11;" vertex="1" parent="TpucwG2LI65JiCxC-MDD-1">
          <mxGeometry x="1148" y="632" width="80" height="13" as="geometry" />
        </mxCell>
        <mxCell id="Nla-4TpSgEvF4evDeSvK-44" value="909" style="rounded=0;whiteSpace=wrap;html=1;fontSize=11;" vertex="1" parent="TpucwG2LI65JiCxC-MDD-1">
          <mxGeometry x="1148" y="652.5" width="80" height="13" as="geometry" />
        </mxCell>
        <mxCell id="Nla-4TpSgEvF4evDeSvK-45" value="We don&#39;t have a good way to query all sets at the same time!" style="rounded=0;whiteSpace=wrap;html=1;fontSize=16;fillColor=#f8cecc;strokeColor=#b85450;fontStyle=1" vertex="1" parent="TpucwG2LI65JiCxC-MDD-1">
          <mxGeometry x="1250" y="492" width="170" height="88" as="geometry" />
        </mxCell>
      </root>
    </mxGraphModel>
  </diagram>
  <diagram name="07 - likes" id="Hd07n9qqWmR5ycUeeGwn">
    <mxGraphModel dx="555" dy="343" grid="1" gridSize="10" guides="1" tooltips="1" connect="1" arrows="1" fold="1" page="1" pageScale="1" pageWidth="1920" pageHeight="1200" math="0" shadow="0">
      <root>
        <mxCell id="3RKXdbDJI0VbRPANHaw3-0" />
        <mxCell id="3RKXdbDJI0VbRPANHaw3-1" parent="3RKXdbDJI0VbRPANHaw3-0" />
        <mxCell id="CSkPuKu41BfO7vyNCJt4-0" value="Redis" style="rounded=0;whiteSpace=wrap;html=1;shadow=1;fontSize=14;align=center;fillColor=#dae8fc;strokeColor=#6c8ebf;" vertex="1" parent="3RKXdbDJI0VbRPANHaw3-1">
          <mxGeometry x="830" y="380" width="230" height="30" as="geometry" />
        </mxCell>
        <mxCell id="CSkPuKu41BfO7vyNCJt4-1" value="" style="rounded=0;whiteSpace=wrap;html=1;shadow=1;fontSize=14;align=center;fillColor=#dae8fc;strokeColor=#6c8ebf;" vertex="1" parent="3RKXdbDJI0VbRPANHaw3-1">
          <mxGeometry x="830" y="410" width="230" height="250" as="geometry" />
        </mxCell>
        <mxCell id="CSkPuKu41BfO7vyNCJt4-2" value="Set" style="rounded=0;whiteSpace=wrap;html=1;fontSize=11;align=center;fontStyle=2;fillColor=#f5f5f5;strokeColor=#666666;fontColor=#333333;" vertex="1" parent="3RKXdbDJI0VbRPANHaw3-1">
          <mxGeometry x="930" y="420" width="100" height="20" as="geometry" />
        </mxCell>
        <mxCell id="CSkPuKu41BfO7vyNCJt4-3" style="edgeStyle=orthogonalEdgeStyle;rounded=0;orthogonalLoop=1;jettySize=auto;html=1;exitX=1;exitY=0.5;exitDx=0;exitDy=0;fontSize=11;" edge="1" parent="3RKXdbDJI0VbRPANHaw3-1" source="CSkPuKu41BfO7vyNCJt4-4" target="CSkPuKu41BfO7vyNCJt4-2">
          <mxGeometry relative="1" as="geometry" />
        </mxCell>
        <mxCell id="CSkPuKu41BfO7vyNCJt4-4" value="users:likes#32" style="rounded=0;whiteSpace=wrap;html=1;fontSize=9;" vertex="1" parent="3RKXdbDJI0VbRPANHaw3-1">
          <mxGeometry x="840" y="420" width="70" height="20" as="geometry" />
        </mxCell>
        <mxCell id="CSkPuKu41BfO7vyNCJt4-5" value="" style="rounded=0;whiteSpace=wrap;html=1;fontSize=11;align=center;fontStyle=2;fillColor=#f5f5f5;strokeColor=#666666;fontColor=#333333;" vertex="1" parent="3RKXdbDJI0VbRPANHaw3-1">
          <mxGeometry x="930" y="440" width="100" height="40" as="geometry" />
        </mxCell>
        <mxCell id="CSkPuKu41BfO7vyNCJt4-6" value="API" style="rounded=0;whiteSpace=wrap;html=1;shadow=1;fontSize=14;align=center;fillColor=#dae8fc;strokeColor=#6c8ebf;" vertex="1" parent="3RKXdbDJI0VbRPANHaw3-1">
          <mxGeometry x="710" y="380" width="110" height="30" as="geometry" />
        </mxCell>
        <mxCell id="CSkPuKu41BfO7vyNCJt4-7" value="" style="rounded=0;whiteSpace=wrap;html=1;shadow=1;fontSize=14;align=center;fillColor=#dae8fc;strokeColor=#6c8ebf;" vertex="1" parent="3RKXdbDJI0VbRPANHaw3-1">
          <mxGeometry x="710" y="410" width="110" height="250" as="geometry" />
        </mxCell>
        <mxCell id="CSkPuKu41BfO7vyNCJt4-8" value="Request" style="rounded=0;whiteSpace=wrap;html=1;fontSize=11;fillColor=#f5f5f5;strokeColor=#666666;fontColor=#333333;fontStyle=1" vertex="1" parent="3RKXdbDJI0VbRPANHaw3-1">
          <mxGeometry x="600" y="390" width="90" height="20" as="geometry" />
        </mxCell>
        <mxCell id="CSkPuKu41BfO7vyNCJt4-22" style="edgeStyle=orthogonalEdgeStyle;rounded=0;orthogonalLoop=1;jettySize=auto;html=1;exitX=1;exitY=0.5;exitDx=0;exitDy=0;entryX=0;entryY=0.5;entryDx=0;entryDy=0;fontSize=16;" edge="1" parent="3RKXdbDJI0VbRPANHaw3-1" source="CSkPuKu41BfO7vyNCJt4-10" target="CSkPuKu41BfO7vyNCJt4-13">
          <mxGeometry relative="1" as="geometry" />
        </mxCell>
        <mxCell id="CSkPuKu41BfO7vyNCJt4-10" value="User ID 32 likes Item ID 45" style="rounded=0;whiteSpace=wrap;html=1;fontSize=11;fillColor=#f5f5f5;strokeColor=#666666;fontColor=#333333;fontStyle=2" vertex="1" parent="3RKXdbDJI0VbRPANHaw3-1">
          <mxGeometry x="600" y="410" width="90" height="70" as="geometry" />
        </mxCell>
        <mxCell id="CSkPuKu41BfO7vyNCJt4-11" style="edgeStyle=orthogonalEdgeStyle;rounded=0;orthogonalLoop=1;jettySize=auto;html=1;exitX=1;exitY=0.5;exitDx=0;exitDy=0;entryX=0;entryY=0.5;entryDx=0;entryDy=0;fontSize=11;" edge="1" parent="3RKXdbDJI0VbRPANHaw3-1" source="CSkPuKu41BfO7vyNCJt4-13" target="CSkPuKu41BfO7vyNCJt4-4">
          <mxGeometry relative="1" as="geometry">
            <Array as="points">
              <mxPoint x="815" y="430" />
            </Array>
          </mxGeometry>
        </mxCell>
        <mxCell id="CSkPuKu41BfO7vyNCJt4-12" style="edgeStyle=orthogonalEdgeStyle;rounded=0;orthogonalLoop=1;jettySize=auto;html=1;exitX=0.5;exitY=1;exitDx=0;exitDy=0;entryX=0.5;entryY=0;entryDx=0;entryDy=0;fontSize=11;" edge="1" parent="3RKXdbDJI0VbRPANHaw3-1" source="CSkPuKu41BfO7vyNCJt4-13" target="CSkPuKu41BfO7vyNCJt4-18">
          <mxGeometry relative="1" as="geometry" />
        </mxCell>
        <mxCell id="CSkPuKu41BfO7vyNCJt4-13" value="Add 45 to this user&#39;s liked set" style="rounded=0;whiteSpace=wrap;html=1;fontSize=11;" vertex="1" parent="3RKXdbDJI0VbRPANHaw3-1">
          <mxGeometry x="715" y="430" width="100" height="50" as="geometry" />
        </mxCell>
        <mxCell id="CSkPuKu41BfO7vyNCJt4-14" value="45" style="rounded=0;whiteSpace=wrap;html=1;fontSize=11;" vertex="1" parent="3RKXdbDJI0VbRPANHaw3-1">
          <mxGeometry x="940" y="450" width="80" height="20" as="geometry" />
        </mxCell>
        <mxCell id="CSkPuKu41BfO7vyNCJt4-41" style="edgeStyle=orthogonalEdgeStyle;rounded=0;orthogonalLoop=1;jettySize=auto;html=1;exitX=1;exitY=0.5;exitDx=0;exitDy=0;fontSize=16;" edge="1" parent="3RKXdbDJI0VbRPANHaw3-1" source="CSkPuKu41BfO7vyNCJt4-18" target="CSkPuKu41BfO7vyNCJt4-25">
          <mxGeometry relative="1" as="geometry" />
        </mxCell>
        <mxCell id="CSkPuKu41BfO7vyNCJt4-18" value="Was the id actually added? If so, increment the # of likes on the item hash" style="rounded=0;whiteSpace=wrap;html=1;fontSize=11;" vertex="1" parent="3RKXdbDJI0VbRPANHaw3-1">
          <mxGeometry x="715" y="493" width="100" height="77" as="geometry" />
        </mxCell>
        <mxCell id="CSkPuKu41BfO7vyNCJt4-24" style="edgeStyle=orthogonalEdgeStyle;rounded=0;orthogonalLoop=1;jettySize=auto;html=1;exitX=1;exitY=0.5;exitDx=0;exitDy=0;fontSize=11;" edge="1" parent="3RKXdbDJI0VbRPANHaw3-1" source="CSkPuKu41BfO7vyNCJt4-25">
          <mxGeometry relative="1" as="geometry">
            <mxPoint x="930" y="529.983606557377" as="targetPoint" />
          </mxGeometry>
        </mxCell>
        <mxCell id="CSkPuKu41BfO7vyNCJt4-25" value="items#45" style="rounded=0;whiteSpace=wrap;html=1;fontSize=9;" vertex="1" parent="3RKXdbDJI0VbRPANHaw3-1">
          <mxGeometry x="840" y="520" width="70" height="20" as="geometry" />
        </mxCell>
        <mxCell id="CSkPuKu41BfO7vyNCJt4-32" value="key" style="rounded=0;whiteSpace=wrap;html=1;fontSize=9;align=center;fontStyle=2;fillColor=#f5f5f5;strokeColor=#666666;fontColor=#333333;" vertex="1" parent="3RKXdbDJI0VbRPANHaw3-1">
          <mxGeometry x="930" y="520" width="40" height="15" as="geometry" />
        </mxCell>
        <mxCell id="CSkPuKu41BfO7vyNCJt4-33" value="value" style="rounded=0;whiteSpace=wrap;html=1;fontSize=9;align=center;fontStyle=2;fillColor=#f5f5f5;strokeColor=#666666;fontColor=#333333;" vertex="1" parent="3RKXdbDJI0VbRPANHaw3-1">
          <mxGeometry x="970" y="520" width="80" height="15" as="geometry" />
        </mxCell>
        <mxCell id="CSkPuKu41BfO7vyNCJt4-36" value="name" style="rounded=0;whiteSpace=wrap;html=1;fontSize=8;" vertex="1" parent="3RKXdbDJI0VbRPANHaw3-1">
          <mxGeometry x="930" y="535" width="40" height="25" as="geometry" />
        </mxCell>
        <mxCell id="CSkPuKu41BfO7vyNCJt4-37" value="Chair" style="rounded=0;whiteSpace=wrap;html=1;fontSize=10;" vertex="1" parent="3RKXdbDJI0VbRPANHaw3-1">
          <mxGeometry x="970" y="535" width="80" height="25" as="geometry" />
        </mxCell>
        <mxCell id="CSkPuKu41BfO7vyNCJt4-38" value="description" style="rounded=0;whiteSpace=wrap;html=1;fontSize=8;" vertex="1" parent="3RKXdbDJI0VbRPANHaw3-1">
          <mxGeometry x="930" y="560" width="40" height="25" as="geometry" />
        </mxCell>
        <mxCell id="CSkPuKu41BfO7vyNCJt4-39" value="likes" style="rounded=0;whiteSpace=wrap;html=1;fontSize=8;" vertex="1" parent="3RKXdbDJI0VbRPANHaw3-1">
          <mxGeometry x="930" y="585" width="40" height="25" as="geometry" />
        </mxCell>
        <mxCell id="CSkPuKu41BfO7vyNCJt4-40" value="1" style="rounded=0;whiteSpace=wrap;html=1;fontSize=10;" vertex="1" parent="3RKXdbDJI0VbRPANHaw3-1">
          <mxGeometry x="970" y="585" width="80" height="25" as="geometry" />
        </mxCell>
        <mxCell id="CSkPuKu41BfO7vyNCJt4-42" value="a great chair" style="rounded=0;whiteSpace=wrap;html=1;fontSize=10;" vertex="1" parent="3RKXdbDJI0VbRPANHaw3-1">
          <mxGeometry x="970" y="560" width="80" height="25" as="geometry" />
        </mxCell>
      </root>
    </mxGraphModel>
  </diagram>
  <diagram name="03 - inter" id="XB4vv3xS3kXctpRFK6Eo">
    <mxGraphModel dx="1434" dy="780" grid="1" gridSize="10" guides="1" tooltips="1" connect="1" arrows="1" fold="1" page="1" pageScale="1" pageWidth="1920" pageHeight="1200" math="0" shadow="0">
      <root>
        <mxCell id="CdX0uYcBquTrswHJmAv0-0" />
        <mxCell id="CdX0uYcBquTrswHJmAv0-1" parent="CdX0uYcBquTrswHJmAv0-0" />
        <mxCell id="CdX0uYcBquTrswHJmAv0-2" value="Redis" style="rounded=0;whiteSpace=wrap;html=1;shadow=1;fontSize=14;align=center;fillColor=#dae8fc;strokeColor=#6c8ebf;" parent="CdX0uYcBquTrswHJmAv0-1" vertex="1">
          <mxGeometry x="850" y="380" width="430" height="30" as="geometry" />
        </mxCell>
        <mxCell id="CdX0uYcBquTrswHJmAv0-3" value="" style="rounded=0;whiteSpace=wrap;html=1;shadow=1;fontSize=14;align=center;fillColor=#dae8fc;strokeColor=#6c8ebf;" parent="CdX0uYcBquTrswHJmAv0-1" vertex="1">
          <mxGeometry x="850" y="410" width="430" height="180" as="geometry" />
        </mxCell>
        <mxCell id="CdX0uYcBquTrswHJmAv0-4" value="Item ID&#39;s that user ID 45 likes" style="rounded=0;whiteSpace=wrap;html=1;fontSize=11;align=center;fontStyle=2;fillColor=#f5f5f5;strokeColor=#666666;fontColor=#333333;" parent="CdX0uYcBquTrswHJmAv0-1" vertex="1">
          <mxGeometry x="950" y="420" width="100" height="30" as="geometry" />
        </mxCell>
        <mxCell id="CdX0uYcBquTrswHJmAv0-5" style="edgeStyle=orthogonalEdgeStyle;rounded=0;orthogonalLoop=1;jettySize=auto;html=1;exitX=1;exitY=0.5;exitDx=0;exitDy=0;fontSize=11;" parent="CdX0uYcBquTrswHJmAv0-1" source="CdX0uYcBquTrswHJmAv0-6" target="CdX0uYcBquTrswHJmAv0-4" edge="1">
          <mxGeometry relative="1" as="geometry" />
        </mxCell>
        <mxCell id="CdX0uYcBquTrswHJmAv0-6" value="users:45:likes" style="rounded=0;whiteSpace=wrap;html=1;fontSize=11;" parent="CdX0uYcBquTrswHJmAv0-1" vertex="1">
          <mxGeometry x="860" y="425" width="70" height="20" as="geometry" />
        </mxCell>
        <mxCell id="CdX0uYcBquTrswHJmAv0-7" value="" style="rounded=0;whiteSpace=wrap;html=1;fontSize=11;align=center;fontStyle=2;fillColor=#f5f5f5;strokeColor=#666666;fontColor=#333333;" parent="CdX0uYcBquTrswHJmAv0-1" vertex="1">
          <mxGeometry x="950" y="450" width="100" height="130" as="geometry" />
        </mxCell>
        <mxCell id="CdX0uYcBquTrswHJmAv0-16" value="123" style="rounded=0;whiteSpace=wrap;html=1;fontSize=11;" parent="CdX0uYcBquTrswHJmAv0-1" vertex="1">
          <mxGeometry x="960" y="455" width="80" height="20" as="geometry" />
        </mxCell>
        <mxCell id="CdX0uYcBquTrswHJmAv0-17" value="555" style="rounded=0;whiteSpace=wrap;html=1;fontSize=11;fillColor=#ffe6cc;strokeColor=#d79b00;" parent="CdX0uYcBquTrswHJmAv0-1" vertex="1">
          <mxGeometry x="960" y="483" width="80" height="20" as="geometry" />
        </mxCell>
        <mxCell id="CdX0uYcBquTrswHJmAv0-18" value="222" style="rounded=0;whiteSpace=wrap;html=1;fontSize=11;" parent="CdX0uYcBquTrswHJmAv0-1" vertex="1">
          <mxGeometry x="960" y="512" width="80" height="20" as="geometry" />
        </mxCell>
        <mxCell id="CdX0uYcBquTrswHJmAv0-19" value="909" style="rounded=0;whiteSpace=wrap;html=1;fontSize=11;fillColor=#ffe6cc;strokeColor=#d79b00;" parent="CdX0uYcBquTrswHJmAv0-1" vertex="1">
          <mxGeometry x="960" y="540" width="80" height="20" as="geometry" />
        </mxCell>
        <mxCell id="M7jExCPqDBZzvQ_hqxqs-0" value="Item ID&#39;s that user ID 32 likes" style="rounded=0;whiteSpace=wrap;html=1;fontSize=11;align=center;fontStyle=2;fillColor=#f5f5f5;strokeColor=#666666;fontColor=#333333;" parent="CdX0uYcBquTrswHJmAv0-1" vertex="1">
          <mxGeometry x="1170" y="420" width="100" height="30" as="geometry" />
        </mxCell>
        <mxCell id="M7jExCPqDBZzvQ_hqxqs-1" style="edgeStyle=orthogonalEdgeStyle;rounded=0;orthogonalLoop=1;jettySize=auto;html=1;exitX=1;exitY=0.5;exitDx=0;exitDy=0;fontSize=11;" parent="CdX0uYcBquTrswHJmAv0-1" source="M7jExCPqDBZzvQ_hqxqs-2" target="M7jExCPqDBZzvQ_hqxqs-0" edge="1">
          <mxGeometry relative="1" as="geometry" />
        </mxCell>
        <mxCell id="M7jExCPqDBZzvQ_hqxqs-2" value="users:32:likes" style="rounded=0;whiteSpace=wrap;html=1;fontSize=11;" parent="CdX0uYcBquTrswHJmAv0-1" vertex="1">
          <mxGeometry x="1080" y="425" width="70" height="20" as="geometry" />
        </mxCell>
        <mxCell id="M7jExCPqDBZzvQ_hqxqs-3" value="" style="rounded=0;whiteSpace=wrap;html=1;fontSize=11;align=center;fontStyle=2;fillColor=#f5f5f5;strokeColor=#666666;fontColor=#333333;" parent="CdX0uYcBquTrswHJmAv0-1" vertex="1">
          <mxGeometry x="1170" y="450" width="100" height="130" as="geometry" />
        </mxCell>
        <mxCell id="M7jExCPqDBZzvQ_hqxqs-4" value="915" style="rounded=0;whiteSpace=wrap;html=1;fontSize=11;" parent="CdX0uYcBquTrswHJmAv0-1" vertex="1">
          <mxGeometry x="1180" y="455" width="80" height="20" as="geometry" />
        </mxCell>
        <mxCell id="M7jExCPqDBZzvQ_hqxqs-5" value="555" style="rounded=0;whiteSpace=wrap;html=1;fontSize=11;fillColor=#ffe6cc;strokeColor=#d79b00;" parent="CdX0uYcBquTrswHJmAv0-1" vertex="1">
          <mxGeometry x="1180" y="483" width="80" height="20" as="geometry" />
        </mxCell>
        <mxCell id="M7jExCPqDBZzvQ_hqxqs-6" value="632" style="rounded=0;whiteSpace=wrap;html=1;fontSize=11;" parent="CdX0uYcBquTrswHJmAv0-1" vertex="1">
          <mxGeometry x="1180" y="512" width="80" height="20" as="geometry" />
        </mxCell>
        <mxCell id="M7jExCPqDBZzvQ_hqxqs-7" value="909" style="rounded=0;whiteSpace=wrap;html=1;fontSize=11;fillColor=#ffe6cc;strokeColor=#d79b00;" parent="CdX0uYcBquTrswHJmAv0-1" vertex="1">
          <mxGeometry x="1180" y="540" width="80" height="20" as="geometry" />
        </mxCell>
        <mxCell id="rTWtx_DzJoBsfBowZE3U-0" value="Which items do both user 45 &amp;amp; user 32 like?" style="rounded=0;whiteSpace=wrap;html=1;fontSize=14;fontStyle=1;fillColor=#f8cecc;strokeColor=#b85450;" vertex="1" parent="CdX0uYcBquTrswHJmAv0-1">
          <mxGeometry x="920" y="620" width="300" height="40" as="geometry" />
        </mxCell>
        <mxCell id="rTWtx_DzJoBsfBowZE3U-1" value="SIINTER users#45:likes users#32:likes" style="rounded=0;whiteSpace=wrap;html=1;fontSize=12;align=center;fontStyle=2;fillColor=#f5f5f5;strokeColor=#666666;fontColor=#333333;" vertex="1" parent="CdX0uYcBquTrswHJmAv0-1">
          <mxGeometry x="920" y="660" width="300" height="30" as="geometry" />
        </mxCell>
      </root>
    </mxGraphModel>
  </diagram>
  <diagram id="i8Eoo6ZMEettmIeQ12Jz" name="05 - list">
    <mxGraphModel dx="413" dy="255" grid="1" gridSize="10" guides="1" tooltips="1" connect="1" arrows="1" fold="1" page="1" pageScale="1" pageWidth="1920" pageHeight="1200" math="0" shadow="0">
      <root>
        <mxCell id="vDj1MSJ20uaVpSzn2huC-0" />
        <mxCell id="vDj1MSJ20uaVpSzn2huC-1" parent="vDj1MSJ20uaVpSzn2huC-0" />
        <mxCell id="qSG-bRM7ZqsLAG6lguBU-0" value="Redis" style="rounded=0;whiteSpace=wrap;html=1;shadow=1;fontSize=14;align=center;fillColor=#dae8fc;strokeColor=#6c8ebf;" vertex="1" parent="vDj1MSJ20uaVpSzn2huC-1">
          <mxGeometry x="820" y="380" width="240" height="30" as="geometry" />
        </mxCell>
        <mxCell id="qSG-bRM7ZqsLAG6lguBU-1" value="" style="rounded=0;whiteSpace=wrap;html=1;shadow=1;fontSize=14;align=center;fillColor=#dae8fc;strokeColor=#6c8ebf;" vertex="1" parent="vDj1MSJ20uaVpSzn2huC-1">
          <mxGeometry x="820" y="410" width="240" height="180" as="geometry" />
        </mxCell>
        <mxCell id="qSG-bRM7ZqsLAG6lguBU-2" value="Set of domains" style="rounded=0;whiteSpace=wrap;html=1;fontSize=11;align=center;fontStyle=2;fillColor=#f5f5f5;strokeColor=#666666;fontColor=#333333;" vertex="1" parent="vDj1MSJ20uaVpSzn2huC-1">
          <mxGeometry x="950" y="420" width="100" height="20" as="geometry" />
        </mxCell>
        <mxCell id="qSG-bRM7ZqsLAG6lguBU-3" style="edgeStyle=orthogonalEdgeStyle;rounded=0;orthogonalLoop=1;jettySize=auto;html=1;exitX=1;exitY=0.5;exitDx=0;exitDy=0;fontSize=11;" edge="1" parent="vDj1MSJ20uaVpSzn2huC-1" source="qSG-bRM7ZqsLAG6lguBU-4" target="qSG-bRM7ZqsLAG6lguBU-2">
          <mxGeometry relative="1" as="geometry" />
        </mxCell>
        <mxCell id="qSG-bRM7ZqsLAG6lguBU-4" value="domains:banned" style="rounded=0;whiteSpace=wrap;html=1;fontSize=11;" vertex="1" parent="vDj1MSJ20uaVpSzn2huC-1">
          <mxGeometry x="830" y="420" width="90" height="20" as="geometry" />
        </mxCell>
        <mxCell id="qSG-bRM7ZqsLAG6lguBU-5" value="" style="rounded=0;whiteSpace=wrap;html=1;fontSize=11;align=center;fontStyle=2;fillColor=#f5f5f5;strokeColor=#666666;fontColor=#333333;" vertex="1" parent="vDj1MSJ20uaVpSzn2huC-1">
          <mxGeometry x="950" y="440" width="100" height="140" as="geometry" />
        </mxCell>
        <mxCell id="qSG-bRM7ZqsLAG6lguBU-6" value="ezmail.com" style="rounded=0;whiteSpace=wrap;html=1;fontSize=11;" vertex="1" parent="vDj1MSJ20uaVpSzn2huC-1">
          <mxGeometry x="960" y="460" width="80" height="20" as="geometry" />
        </mxCell>
        <mxCell id="qSG-bRM7ZqsLAG6lguBU-7" value="freemail.com" style="rounded=0;whiteSpace=wrap;html=1;fontSize=11;" vertex="1" parent="vDj1MSJ20uaVpSzn2huC-1">
          <mxGeometry x="960" y="488" width="80" height="20" as="geometry" />
        </mxCell>
        <mxCell id="qSG-bRM7ZqsLAG6lguBU-8" value="scammail.com" style="rounded=0;whiteSpace=wrap;html=1;fontSize=11;" vertex="1" parent="vDj1MSJ20uaVpSzn2huC-1">
          <mxGeometry x="960" y="517" width="80" height="20" as="geometry" />
        </mxCell>
      </root>
    </mxGraphModel>
  </diagram>
</mxfile>
